PathFileType	4	(X/Y/Z)	61_2_109_p1_0-267.trc
DataRate	CameraRate	NumFrames	NumMarkers	Units	OrigDataRate	OrigDataStartFrame	OrigNumFrames
44.0	44.0	4	27	m	44.0	0	268
Frame#	Time	RHip			RKnee			RAnkle			RBigToe			RSmallToe			RHeel			LHip			LKnee			LAnkle			LBigToe			LSmallToe			LHeel			Neck			Head			Nose			RShoulder			RElbow			RWrist			RThumb			RIndex			RPinky			LShoulder			LElbow			LWrist			LThumb			LIndex			LPinky			
		X1	Y1	Z1	X2	Y2	Z2	X3	Y3	Z3	X4	Y4	Z4	X5	Y5	Z5	X6	Y6	Z6	X7	Y7	Z7	X8	Y8	Z8	X9	Y9	Z9	X10	Y10	Z10	X11	Y11	Z11	X12	Y12	Z12	X13	Y13	Z13	X14	Y14	Z14	X15	Y15	Z15	X16	Y16	Z16	X17	Y17	Z17	X18	Y18	Z18	X19	Y19	Z19	X20	Y20	Z20	X21	Y21	Z21	X22	Y22	Z22	X23	Y23	Z23	X24	Y24	Z24	X25	Y25	Z25	X26	Y26	Z26	X27	Y27	Z27	
0	0.0	0.31354368832566404	0.6559519301035888	0.9559918198903761	0.31813998845981645	0.7981367169035049	1.3705357369799864	0.30409775654439564	0.9346327257630331	1.7592860770258945	0.2949724530256302	0.6998864802285072	1.8254621896114274	0.35621199676728493	0.7354161654342699	1.8091310537203298	0.28095767986102016	0.9901773708918974	1.7904264259044904	0.08801051753646236	0.6592389768495713	0.9879855141012628	0.10263344425601975	0.7510168292683725	1.3709429289251691	0.10490111882348647	0.8718247012479718	1.7474572009213214	0.13564330714837644	0.7261091257061394	1.8322055884656354	0.07240056950924807	0.767221708921342	1.8246030361131491	0.12777108185184174	0.9424681650184602	1.7962936795887334	0.20955261161290736	0.5264067965928803	0.42252400933539114	0.22559667018077229	0.4298433406893621	0.18370952456714226	0.22388733467443678	0.42928061234228787	0.318805341643997	0.37423486192082706	0.5631276460243522	0.509647712078997	0.37586043380070233	0.53286143129908	0.7510254189179959	0.24968872347371787	0.441290395047718	0.9599806939798152	0.19723994785869794	0.41776544649790237	1.0676509329405357	0.20657803523108248	0.4579799663241863	1.0748866595644064	0.21376222783313495	0.484475913722247	1.0730958995934967	0.059618031105322954	0.5515285685585126	0.5026603900340839	0.04369629029102101	0.5081074191996667	0.7624135773267229	0.12354300893500207	0.4491659871042488	0.9677215048282731	0.22877842436580842	0.4605900843364909	1.044785861746124	0.21879137853144887	0.45710911945069166	1.0585845997791634	0.18289068611645962	0.4130853220428065	1.0781574691771796
1	0.022727272727272728	0.31653526861400283	0.6595545340475908	0.9637241075089771	0.3180705287983783	0.7985482201744685	1.3664852968161478	0.31435437356826823	0.9188673974438029	1.7529497657363047	0.30086163791767656	0.6857439312559108	1.819826171788138	0.35761600558234935	0.7347428758361326	1.8044945896048	0.28099236693462665	0.9903698796693909	1.7896647775988725	0.08756624436680469	0.6603004357703992	0.9914940342230418	0.10337937926051188	0.7543044836080753	1.3764464604645974	0.10582093714430997	0.875130552525082	1.7531214154189592	0.13747797904785405	0.7413377191366415	1.8375528929923401	0.07244832697530702	0.7678881854923771	1.8251890455274717	0.12789889800930904	0.9427239770555877	1.7968278985853339	0.20956130478706886	0.5261692846573801	0.422541088669277	0.2254453442937697	0.42822424428930417	0.1809786382079122	0.22172239033747324	0.4182023603723634	0.32034044231884623	0.37196877125953354	0.5530662789656934	0.5135109574883706	0.3796370588239585	0.5478531752958021	0.7624930527114666	0.2720829202250387	0.4063119341612312	0.9657231094656052	0.1956534182933378	0.41453535449146395	1.0616719766634755	0.20465039743403687	0.4559443635511693	1.0808090677006303	0.21121527385497615	0.48318181647671593	1.0763725302037779	0.05957828075595684	0.5515324138081243	0.5027508447815275	0.04302945440696104	0.5069210152126757	0.7625500051445078	0.12921569454899204	0.4371634840195504	0.9661750722738786	0.22660490587076237	0.45201231923743385	1.0410953178013251	0.21882531835669575	0.46539546744406146	1.0664949843112772	0.17859907630467442	0.4142480795823349	1.0700936132088013
2	0.045454545454545456	0.31597610274532106	0.660760874424934	0.96782845303417	0.3217209837351472	0.8009416924066548	1.3705889104424018	0.3144530498167515	0.9188193554560498	1.752860536021058	0.3015636312230931	0.6838285515174306	1.8145700398150588	0.3628387439851116	0.717719525693006	1.7977434834564756	0.28108110931643554	0.9908304540554385	1.7896339467187423	0.08753429410998974	0.6603842070968313	0.9915155710719531	0.10263677554470813	0.751243476634722	1.371158632994225	0.10083880061978727	0.8691961648483625	1.7470905126437524	0.1374241127379902	0.741281984012382	1.8374584881463245	0.07239825307617476	0.767658886503945	1.8249644273629617	0.1277470795621501	0.943427336996276	1.797302083750668	0.20955687360222766	0.5261195123973719	0.4225365256303423	0.22554033794064418	0.4298992223615991	0.18385553360120221	0.22166426147707294	0.4181280645303548	0.3203121853944299	0.3714680691915296	0.5510094694324865	0.510481208091303	0.38002549258900875	0.5480716706270518	0.7625787812376239	0.274838092505486	0.41849100658438887	0.9668705375245249	0.20042917471403407	0.44115298580308077	1.0615333256668567	0.20229162133213058	0.46938629022205575	1.0731542072567026	0.21365604617906242	0.4843543693617094	1.0736287640950988	0.0595735951110238	0.5516241626205943	0.5026889475242002	0.043271020061753505	0.5091920993087143	0.7663379691698861	0.131197679346773	0.4488114785076671	0.9669809451021082	0.21803909420996384	0.4630383652961393	1.0431998638232662	0.21897850165277286	0.46588806523084547	1.066388197789035	0.18039083842297737	0.4276574335536214	1.06518481184676
3	0.06818181818181818	0.3111764397024967	0.6742944782615929	0.9732651997731089	0.3221850314398589	0.800077090902423	1.3742712690031886	0.31012143551086124	0.9164599491496235	1.7526980033114432	0.30434180933397376	0.6984145328229671	1.8193662531205685	0.3627071809086068	0.7181131122948919	1.7977142760447193	0.2799800291745094	0.991861729849555	1.7955436001079617	0.09005241790185094	0.6604644951518913	0.990564634990579	0.09258757625146297	0.76347483821068	1.3747771803134432	0.10485427612536176	0.8722489440048982	1.7475055771472876	0.13138105670483055	0.757604250128883	1.8440330830856215	0.07230752799068409	0.767881193830871	1.8251410246611148	0.12685370635015064	0.9402814306511643	1.7925028134341945	0.20958447193743684	0.5260494007059259	0.4225963314635841	0.2255608247699953	0.4298127710046107	0.1838595301699636	0.22168695930970778	0.4181611048135427	0.32044766055736507	0.3715274736526291	0.5511413183767525	0.5104818184672136	0.38072004818378435	0.5472386212230655	0.7590433592018624	0.2753501555753233	0.41940402631190976	0.9672906821361271	0.1981576919632055	0.45323997557004575	1.056057766848405	0.20106061354702393	0.47043839399374404	1.0692318864504702	0.21360224025099062	0.48453857061558875	1.073700112028241	0.0595627547331825	0.5515971554266126	0.5027396238383686	0.043304297804957224	0.5089970668038678	0.7661346713347228	0.134865673634045	0.4509616560772876	0.966856393389709	0.2236701145418461	0.45146997618335616	1.0414372243318586	0.21896087192547534	0.4661024777602579	1.0661656025001396	0.1832392201877717	0.4426233192009753	1.0636437644792667
